<svg width="4" height="15" viewBox="0 0 4 15" fill="none" xmlns="http://www.w3.org/2000/svg">
<path fill-rule="evenodd" clip-rule="evenodd" d="M1.75 5.97243C0.7875 5.97243 0 6.75993 0 7.72243C0 8.68494 0.7875 9.47243 1.75 9.47243C2.7125 9.47243 3.5 8.68494 3.5 7.72243C3.5 6.75993 2.7125 5.97243 1.75 5.97243ZM1.75 0.722435C0.7875 0.722435 0 1.50994 0 2.47243C0 3.43494 0.7875 4.22243 1.75 4.22243C2.7125 4.22243 3.5 3.43494 3.5 2.47243C3.5 1.50994 2.7125 0.722435 1.75 0.722435ZM1.75 11.2224C0.7875 11.2224 0 12.0099 0 12.9724C0 13.9349 0.7875 14.7224 1.75 14.7224C2.7125 14.7224 3.5 13.9349 3.5 12.9724C3.5 12.0099 2.7125 11.2224 1.75 11.2224Z" fill="#8592A3"/>
</svg>
