<svg width="18" height="18" viewBox="0 0 18 18" fill="none" xmlns="http://www.w3.org/2000/svg">
<path fill-rule="evenodd" clip-rule="evenodd" d="M8.99998 2.33549C8.00638 1.43009 6.73918 0.933289 5.40358 0.933289C3.98338 0.933289 2.63878 1.49399 1.61188 2.51549C-0.505818 4.64219 -0.504917 7.96859 1.61368 10.0863L8.21248 16.6851C8.36548 16.9542 8.66068 17.1279 8.99998 17.1279C9.28978 17.1279 9.54808 16.9812 9.71278 16.7598L16.3863 10.0863C18.5049 7.96769 18.5049 4.64219 16.3845 2.51189C15.3612 1.49399 14.0166 0.933289 12.5964 0.933289C11.2617 0.933289 9.99358 1.43009 8.99998 2.33549ZM15.1119 3.78449C16.5186 5.19839 16.5195 7.40699 15.1137 8.81369L8.99998 14.9274L2.88628 8.81369C1.48048 7.40699 1.48138 5.19839 2.88448 3.78809C3.56848 3.10769 4.46308 2.73329 5.40358 2.73329C6.34408 2.73329 7.23508 3.10769 7.91368 3.78629L8.36368 4.23629C8.71558 4.58819 9.28438 4.58819 9.63628 4.23629L10.0863 3.78629C11.4471 2.42819 13.7529 2.43179 15.1119 3.78449Z" fill="#435971"/>
<path fill-rule="evenodd" clip-rule="evenodd" d="M8.99998 2.33549C8.00638 1.43009 6.73918 0.933289 5.40358 0.933289C3.98338 0.933289 2.63878 1.49399 1.61188 2.51549C-0.505818 4.64219 -0.504917 7.96859 1.61368 10.0863L8.21248 16.6851C8.36548 16.9542 8.66068 17.1279 8.99998 17.1279C9.28978 17.1279 9.54808 16.9812 9.71278 16.7598L16.3863 10.0863C18.5049 7.96769 18.5049 4.64219 16.3845 2.51189C15.3612 1.49399 14.0166 0.933289 12.5964 0.933289C11.2617 0.933289 9.99358 1.43009 8.99998 2.33549ZM15.1119 3.78449C16.5186 5.19839 16.5195 7.40699 15.1137 8.81369L8.99998 14.9274L2.88628 8.81369C1.48048 7.40699 1.48138 5.19839 2.88448 3.78809C3.56848 3.10769 4.46308 2.73329 5.40358 2.73329C6.34408 2.73329 7.23508 3.10769 7.91368 3.78629L8.36368 4.23629C8.71558 4.58819 9.28438 4.58819 9.63628 4.23629L10.0863 3.78629C11.4471 2.42819 13.7529 2.43179 15.1119 3.78449Z" fill="white" fill-opacity="0.5"/>
</svg>
