<svg width="18" height="18" viewBox="0 0 18 18" fill="none" xmlns="http://www.w3.org/2000/svg">
<path fill-rule="evenodd" clip-rule="evenodd" d="M16.2 0H1.8C0.8073 0 0 0.8073 0 1.8V12.6C0 13.5927 0.8073 14.4 1.8 14.4H4.5V17.7903L10.1493 14.4H16.2C17.1927 14.4 18 13.5927 18 12.6V1.8C18 0.8073 17.1927 0 16.2 0ZM16.2 12.6H9.6507L6.3 14.6097V12.6H1.8V1.8H16.2V12.6Z" fill="#435971"/>
<path fill-rule="evenodd" clip-rule="evenodd" d="M16.2 0H1.8C0.8073 0 0 0.8073 0 1.8V12.6C0 13.5927 0.8073 14.4 1.8 14.4H4.5V17.7903L10.1493 14.4H16.2C17.1927 14.4 18 13.5927 18 12.6V1.8C18 0.8073 17.1927 0 16.2 0ZM16.2 12.6H9.6507L6.3 14.6097V12.6H1.8V1.8H16.2V12.6Z" fill="white" fill-opacity="0.5"/>
</svg>
