<?xml version="1.0" encoding="UTF-8"?>
<svg width="14px" height="14px" viewBox="0 0 14 14" version="1.1" xmlns="http://www.w3.org/2000/svg" xmlns:xlink="http://www.w3.org/1999/xlink">
    <title>切片</title>
    <defs>
        <linearGradient x1="50%" y1="0%" x2="33.9561538%" y2="99.4549049%" id="linearGradient-1">
            <stop stop-color="#00B1FF" offset="0%"></stop>
            <stop stop-color="#006BFF" offset="100%"></stop>
        </linearGradient>
    </defs>
    <g id="后端v1.1" stroke="none" stroke-width="1" fill="none" fill-rule="evenodd">
        <g id="facebook评论2" transform="translate(-354.000000, -296.000000)">
            <g id="编组-11" transform="translate(64.000000, 0.000000)">
                <g id="编组-7备份" transform="translate(0.000000, 250.000000)">
                    <g id="fb_messenger" transform="translate(290.000000, 46.000000)">
                        <path d="M7,13.557964 C10.8659923,13.557964 14,10.5229284 14,6.7790089 C14,3.0350571 10.8659923,0 7,0 C3.13400769,0 0,3.0350571 0,6.7790089 C0,8.81525311 0.927058462,10.6418206 2.39473769,11.8844271 L2.39473769,13.2562642 C2.39473769,13.7924099 2.94086154,14.152048 3.42778154,13.9365021 L4.95007692,13.2626719 C5.59838462,13.4546871 6.28675385,13.557964 7,13.557964 Z" id="路径" fill="url(#linearGradient-1)"></path>
                        <path d="M5.32376923,5.33792566 L3.29389308,8.11401532 C3.07625231,8.41167657 3.46766,8.76926854 3.76564462,8.54499952 L5.49893077,7.24063154 C5.67533077,7.10784705 5.92264615,7.10607013 6.10114615,7.23627 L7.64265385,8.360792 C7.93826923,8.57644564 8.3608,8.51441493 8.57602308,8.22375367 L10.7048846,5.34912565 C10.9256538,5.05097978 10.5312308,4.69048013 10.2328154,4.91765684 L8.40032308,6.31270165 C8.22386923,6.44704768 7.97526154,6.4495246 7.79595385,6.31867857 L6.25945385,5.19781811 C5.96254615,4.98124908 5.53807692,5.04484133 5.32376923,5.33792566 Z" id="路径" fill="#FFFFFF" fill-rule="nonzero"></path>
                    </g>
                </g>
            </g>
        </g>
    </g>
</svg>