<svg width="40" height="40" viewBox="0 0 40 40" fill="none" xmlns="http://www.w3.org/2000/svg">
<rect width="40" height="40" rx="8" fill="#311D05"/>
<path fill-rule="evenodd" clip-rule="evenodd" d="M16.5057 18.5634L20.0018 15.0689L23.4992 18.5663L25.5323 16.5319L20.0018 11.0001L14.4712 16.5304L16.5057 18.5634ZM11.0001 20.0003L13.0338 17.9666L15.0676 20.0003L13.0338 22.034L11.0001 20.0003ZM20.0017 24.9325L16.5057 21.4365L14.4684 23.4681L14.4712 23.471L20.0017 28.9999L25.5323 23.4681L25.5337 23.4667L23.4992 21.4351L20.0017 24.9325ZM24.9322 20.0008L26.966 17.9671L28.9997 20.0008L26.966 22.0345L24.9322 20.0008ZM20.0014 17.9349L22.0644 19.9992H22.0658L22.0644 20.0006L20.0014 22.0649L17.9385 20.0034L17.9356 19.9992L17.9385 19.9963L18.2996 19.6352L18.4759 19.4603L20.0014 17.9349Z" fill="#F3BA2F"/>
</svg>
