<svg width="20" height="20" viewBox="0 0 20 20" fill="none" xmlns="http://www.w3.org/2000/svg">
<path fill-rule="evenodd" clip-rule="evenodd" d="M3.33337 2.5C1.95266 2.5 0.833374 3.61929 0.833374 5V15C0.833374 16.3807 1.95266 17.5 3.33337 17.5H16.6667C18.0474 17.5 19.1667 16.3807 19.1667 15V5C19.1667 3.61929 18.0474 2.5 16.6667 2.5H3.33337ZM5.53355 6.0265C5.17998 5.73187 4.65451 5.77964 4.35988 6.1332C4.06524 6.48676 4.11301 7.01224 4.46657 7.30687L8.3996 10.5844C9.32672 11.357 10.6734 11.357 11.6005 10.5844L15.5335 7.30687C15.8871 7.01224 15.9349 6.48676 15.6402 6.1332C15.3456 5.77964 14.8201 5.73187 14.4666 6.0265L10.5335 9.30402C10.2245 9.56156 9.77561 9.56156 9.46658 9.30403L5.53355 6.0265Z" fill="#868AA5"/>
</svg>
