<svg width="20" height="20" viewBox="0 0 20 20" fill="none" xmlns="http://www.w3.org/2000/svg">
<g id="Iconly/Bold/Profile">
<g id="Profile">
<path id="Profile_2" fill-rule="evenodd" clip-rule="evenodd" d="M14.3782 6.16698C14.3782 8.65243 12.419 10.6673 10.0021 10.6673C7.58529 10.6673 5.62605 8.65243 5.62605 6.16698C5.62605 3.68154 7.58529 1.66669 10.0021 1.66669C12.419 1.66669 14.3782 3.68154 14.3782 6.16698ZM13.7582 13.2029C15.1496 13.4846 16.058 13.9443 16.4473 14.6857C16.7397 15.2643 16.7397 15.9531 16.4473 16.5318C16.058 17.2732 15.1857 17.7625 13.7438 18.0146C13.1013 18.1441 12.451 18.2283 11.7973 18.2666C11.1917 18.3334 10.5861 18.3334 9.97331 18.3334H8.87027C8.63957 18.3037 8.41608 18.2889 8.1998 18.2889C7.5461 18.2552 6.89559 18.1735 6.25327 18.0442C4.86185 17.7773 3.95347 17.3028 3.56417 16.5614C3.41388 16.2742 3.33465 15.9534 3.33347 15.6272C3.33033 15.2991 3.40717 14.9754 3.55696 14.6857C3.93905 13.9443 4.84744 13.4624 6.25327 13.2029C6.89842 13.0762 7.55115 12.9945 8.20701 12.9582C9.40673 12.8615 10.612 12.8615 11.8117 12.9582C12.465 12.9963 13.1152 13.078 13.7582 13.2029Z" fill="#868AA5"/>
</g>
</g>
</svg>
