<svg width="18" height="18" viewBox="0 0 18 18" fill="none" xmlns="http://www.w3.org/2000/svg">
<path d="M9 14.4825H3.6075C2.76 14.4825 2.0625 13.785 2.0625 12.9375V5.22749C2.0625 4.37999 2.76 3.6825 3.6075 3.6825H4.29" stroke="#435971" stroke-width="1.5" stroke-linecap="round" stroke-linejoin="round"/>
<path d="M9 3.69001V14.4825C8.7675 14.1075 8.07749 13.11 6.74249 12.5625C6.13499 12.315 5.5575 12.2325 5.1075 12.21C4.695 12.195 4.38 11.85 4.38 11.445V2.90252C4.38 2.46752 4.73251 2.11504 5.16751 2.13004C5.59501 2.14504 6.105 2.21251 6.6525 2.37751C7.8 2.71501 8.5875 3.32251 9 3.69001Z" stroke="#435971" stroke-width="1.5" stroke-linecap="round" stroke-linejoin="round"/>
<path d="M15.9375 5.22749V12.9375C15.9375 13.785 15.24 14.4825 14.3925 14.4825H9V3.69H14.3925C15.24 3.69 15.9375 4.37999 15.9375 5.22749Z" stroke="#435971" stroke-width="1.5" stroke-linecap="round" stroke-linejoin="round"/>
<path d="M11.3025 5.97748H13.635" stroke="#435971" stroke-width="1.5" stroke-linecap="round" stroke-linejoin="round"/>
<path d="M11.3025 9.08249H13.635" stroke="#435971" stroke-width="1.5" stroke-linecap="round" stroke-linejoin="round"/>
<path d="M11.3025 12.195H13.635" stroke="#435971" stroke-width="1.5" stroke-linecap="round" stroke-linejoin="round"/>
</svg>
