<svg width="21" height="21" viewBox="0 0 21 21" fill="none" xmlns="http://www.w3.org/2000/svg">
<path fill-rule="evenodd" clip-rule="evenodd" d="M19.0078 12.2187C18.3199 12.4016 17.6096 12.494 16.8973 12.494C14.7278 12.494 12.6904 11.6509 11.1601 10.1213C9.11967 8.08173 8.31589 5.07624 9.06276 2.27694C9.15625 1.92651 9.05565 1.55273 8.79958 1.29677C8.54351 1.04081 8.17058 0.937212 7.81798 1.03472C6.08849 1.49687 4.51143 2.4039 3.25648 3.65729C-0.704472 7.61653 -0.704472 14.0612 3.25648 18.0225C5.17599 19.9412 7.72856 20.9985 10.4427 20.9985C13.1568 20.9985 15.7084 19.9422 17.6269 18.0235C18.8828 16.7671 19.7913 15.1887 20.2516 13.462C20.3451 13.1115 20.2435 12.7378 19.9874 12.4818C19.7313 12.2248 19.3564 12.1232 19.0078 12.2187ZM16.1911 16.5872C14.6557 18.122 12.6143 18.967 10.4438 18.967C8.27225 18.967 6.23081 18.1209 4.69439 16.5862C1.52603 13.4182 1.52603 8.26244 4.69439 5.09444C5.30611 4.48298 6.01335 3.97512 6.78766 3.58813C6.56207 6.51846 7.6148 9.45082 9.72433 11.5594C11.8257 13.6609 14.7309 14.7285 17.6991 14.4959C17.3109 15.2668 16.8018 15.9747 16.1911 16.5872Z" fill="#435971"/>
<path fill-rule="evenodd" clip-rule="evenodd" d="M19.0078 12.2187C18.3199 12.4016 17.6096 12.494 16.8973 12.494C14.7278 12.494 12.6904 11.6509 11.1601 10.1213C9.11967 8.08173 8.31589 5.07624 9.06276 2.27694C9.15625 1.92651 9.05565 1.55273 8.79958 1.29677C8.54351 1.04081 8.17058 0.937212 7.81798 1.03472C6.08849 1.49687 4.51143 2.4039 3.25648 3.65729C-0.704472 7.61653 -0.704472 14.0612 3.25648 18.0225C5.17599 19.9412 7.72856 20.9985 10.4427 20.9985C13.1568 20.9985 15.7084 19.9422 17.6269 18.0235C18.8828 16.7671 19.7913 15.1887 20.2516 13.462C20.3451 13.1115 20.2435 12.7378 19.9874 12.4818C19.7313 12.2248 19.3564 12.1232 19.0078 12.2187ZM16.1911 16.5872C14.6557 18.122 12.6143 18.967 10.4438 18.967C8.27225 18.967 6.23081 18.1209 4.69439 16.5862C1.52603 13.4182 1.52603 8.26244 4.69439 5.09444C5.30611 4.48298 6.01335 3.97512 6.78766 3.58813C6.56207 6.51846 7.6148 9.45082 9.72433 11.5594C11.8257 13.6609 14.7309 14.7285 17.6991 14.4959C17.3109 15.2668 16.8018 15.9747 16.1911 16.5872Z" fill="white" fill-opacity="0.2"/>
</svg>
