<svg width="24" height="24" viewBox="0 0 24 24" fill="none" xmlns="http://www.w3.org/2000/svg">
<path fill-rule="evenodd" clip-rule="evenodd" d="M11.9998 3C14.5808 3 16.8548 4.661 17.6748 7.045C20.1138 7.376 21.9998 9.472 21.9998 12C21.9998 13.221 21.5558 14.396 20.7498 15.309C20.5518 15.532 20.2768 15.647 19.9998 15.647C19.7648 15.647 19.5288 15.565 19.3378 15.397C18.9248 15.03 18.8848 14.399 19.2508 13.984C19.7338 13.438 19.9998 12.732 19.9998 12C19.9998 10.346 18.6538 9 16.9998 9H16.8998C16.4238 9 16.0138 8.664 15.9198 8.197C15.5458 6.345 13.8978 5 11.9998 5C10.1028 5 8.45382 6.345 8.08082 8.197C7.98682 8.664 7.57582 9 7.09982 9H6.99982C5.34582 9 3.99982 10.346 3.99982 12C3.99982 12.732 4.26582 13.438 4.74982 13.984C5.11482 14.399 5.07582 15.03 4.66182 15.397C4.24782 15.763 3.61582 15.722 3.25082 15.309C2.44382 14.396 1.99982 13.221 1.99982 12C1.99982 9.472 3.88582 7.376 6.32482 7.045C7.14582 4.661 9.41982 3 11.9998 3ZM11.305 11.2801C11.699 10.9041 12.322 10.9071 12.707 11.2931L15.707 14.2931C16.098 14.6841 16.098 15.3161 15.707 15.7071C15.512 15.9021 15.256 16.0001 15 16.0001C14.744 16.0001 14.488 15.9021 14.293 15.7071L13 14.4141L13 20.0001C13 20.5531 12.552 21.0001 12 21.0001C11.448 21.0001 11 20.5531 11 20.0001L11 14.3561L9.69502 15.6161C9.29802 16.0011 8.66502 15.9881 8.28102 15.5911C7.89702 15.1931 7.90802 14.5611 8.30502 14.1771L11.305 11.2801Z" fill="#333333"/>
</svg>
